<?xml version="1.0" encoding="UTF-8"?>
<svg width="16px" height="16px" viewBox="0 0 16 16" version="1.1" xmlns="http://www.w3.org/2000/svg" xmlns:xlink="http://www.w3.org/1999/xlink">
    <!-- Generator: Sketch 54.1 (76490) - https://sketchapp.com -->
    <title>arrow-maximise</title>
    <desc>Created with Sketch.</desc>
    <g id="mood-board-/-fact-finding" stroke="none" stroke-width="1" fill="none" fill-rule="evenodd">
        <g id="Group-2" transform="translate(-921.000000, -213.000000)" fill="#000000" fill-rule="nonzero">
            <g id="arrow-maximise" transform="translate(921.000000, 213.000000)">
                <path d="M11,3.94430453e-31 C10.447,3.94430453e-31 10,0.448 10,1 C10,1.552 10.447,2 11,2 L12.586,2 L9.293,5.293 C8.902,5.684 8.902,6.316 9.293,6.707 C9.488,6.902 9.744,7 10,7 C10.256,7 10.512,6.902 10.707,6.707 L14,3.414 L14,5 C14,5.552 14.447,6 15,6 C15.553,6 16,5.552 16,5 L16,-1.77635684e-15 L11,-1.77635684e-15 L11,3.94430453e-31 Z M5.293,9.293 L2,12.586 L2,11 C2,10.448 1.553,10 1,10 C0.447,10 -8.8817842e-16,10.448 -8.8817842e-16,11 L-8.8817842e-16,15.999 L0.996,15.999 L5,16 C5.552,16 6,15.552 6,15 C6,14.448 5.553,14 5,14 L3.414,14 L6.707,10.708 C7.098,10.317 7.098,9.685 6.707,9.294 C6.316,8.903 5.684,8.902 5.293,9.293 L5.293,9.293 Z M3,8 C3.552,8 4,7.552 4,7 L4,4 L7,4 C7.553,4 8,3.552 8,3 C8,2.448 7.553,2 7,2 L2.001,2 L2,7 C2,7.552 2.447,8 3,8 Z M13,8 C12.447,8 12,8.448 12,9 L12,12 L9,12 C8.447,12 8,12.448 8,13 C8,13.552 8.447,14 9,14 L14,14 L14,9 C14,8.448 13.553,8 13,8 Z" id="Shape"></path>
            </g>
        </g>
    </g>
</svg>