<?xml version="1.0" encoding="UTF-8"?>
<svg width="16px" height="14px" viewBox="0 0 16 14" version="1.1" xmlns="http://www.w3.org/2000/svg" xmlns:xlink="http://www.w3.org/1999/xlink">
    <!-- Generator: Sketch 54.1 (76490) - https://sketchapp.com -->
    <title>arrow-back-white</title>
    <desc>Created with Sketch.</desc>
    <g id="mood-board-/-fact-finding" stroke="none" stroke-width="1" fill="none" fill-rule="evenodd">
        <g id="Group-2" transform="translate(-1006.000000, -214.000000)" fill="#FFFFFF" fill-rule="nonzero">
            <g id="arrow-back-white" transform="translate(1006.000000, 214.000000)">
                <path d="M8,4.059 L8,1.5 C8,1.244 7.902,0.988 7.707,0.792 C7.512,0.597 7.256,0.5 7,0.5 C6.744,0.5 6.488,0.597 6.293,0.792 L-8.8817842e-16,7 L6.293,13.207 C6.488,13.402 6.744,13.5 7,13.5 C7.256,13.5 7.512,13.402 7.707,13.207 C7.902,13.012 8,12.755 8,12.5 L8,10.011 C10.75,10.079 13.755,10.577 16,14 L16,13 C16,8.367 12.5,4.557 8,4.059 Z" id="Path"></path>
            </g>
        </g>
    </g>
</svg>