<?xml version="1.0" encoding="UTF-8"?>
<svg width="16px" height="21px" viewBox="0 0 16 21" version="1.1" xmlns="http://www.w3.org/2000/svg" xmlns:xlink="http://www.w3.org/1999/xlink">
    <!-- Generator: Sketch 54.1 (76490) - https://sketchapp.com -->
    <title>arrow-sync</title>
    <desc>Created with Sketch.</desc>
    <g id="mood-board-/-fact-finding" stroke="none" stroke-width="1" fill="none" fill-rule="evenodd">
        <g id="Group-2" transform="translate(-863.000000, -211.000000)" fill="#000000" fill-rule="nonzero">
            <g id="arrow-sync" transform="translate(863.000000, 211.000000)">
                <path d="M15.5,10.473 C15.5,8.525 14.882,7.076 13.434,5.629 C13.043,5.239 12.411,5.239 12.02,5.629 C11.629,6.02 11.629,6.653 12.02,7.044 C13.099,8.122 13.5,9.051 13.5,10.473 C13.5,11.942 12.928,13.323 11.889,14.361 C10.885,15.364 9.811,15.863 8.461,15.954 L9.707,14.707 C10.098,14.316 10.098,13.684 9.707,13.293 C9.316,12.902 8.684,12.902 8.293,13.293 L4.586,17 L8.293,20.707 C8.488,20.902 8.744,21 9,21 C9.256,21 9.512,20.902 9.707,20.707 C10.098,20.316 10.098,19.684 9.707,19.293 L8.37,17.957 C10.293,17.875 11.912,17.165 13.303,15.776 C14.72,14.36 15.5,12.477 15.5,10.473 Z M2.5,10.5 C2.5,9.031 3.072,7.65 4.111,6.611 C5.12,5.602 6.203,5.103 7.568,5.017 L6.293,6.292 C5.902,6.683 5.902,7.315 6.293,7.706 C6.488,7.902 6.744,8 7,8 C7.256,8 7.512,7.902 7.707,7.707 L11.414,4 L7.707,0.293 C7.316,-0.098 6.684,-0.098 6.293,0.293 C5.902,0.684 5.902,1.316 6.293,1.707 L7.604,3.018 C5.69,3.104 4.079,3.814 2.697,5.197 C1.28,6.613 0.5,8.496 0.5,10.5 C0.5,12.448 1.118,13.897 2.566,15.344 C2.761,15.539 3.017,15.636 3.273,15.636 C3.529,15.636 3.785,15.538 3.98,15.343 C4.371,14.952 4.371,14.319 3.98,13.928 C2.901,12.851 2.5,11.922 2.5,10.5 L2.5,10.5 Z" id="Shape"></path>
            </g>
        </g>
    </g>
</svg>