<?xml version="1.0" encoding="UTF-8"?>
<svg width="11px" height="10px" viewBox="0 0 11 10" version="1.1" xmlns="http://www.w3.org/2000/svg" xmlns:xlink="http://www.w3.org/1999/xlink">
    <!-- Generator: Sketch 54.1 (76490) - https://sketchapp.com -->
    <title>arrow-back</title>
    <desc>Created with Sketch.</desc>
    <g id="Final-design" stroke="none" stroke-width="1" fill="none" fill-rule="evenodd">
        <g id="Group-5" transform="translate(-164.000000, -33.000000)" fill="#FFFFFF" fill-rule="nonzero">
            <g id="Group-29" transform="translate(119.000000, 11.000000)">
                <g id="Group-28">
                    <g id="Group-9">
                        <path d="M50.5,24.4468125 L50.5,22.6875 C50.5,22.5115 50.432625,22.3355 50.2985625,22.20075 C50.1645,22.0666875 49.9885,22 49.8125,22 C49.6365,22 49.4605,22.0666875 49.3264375,22.20075 L45,26.46875 L49.3264375,30.7360625 C49.4605,30.870125 49.6365,30.9375 49.8125,30.9375 C49.9885,30.9375 50.1645,30.870125 50.2985625,30.7360625 C50.432625,30.602 50.5,30.4253125 50.5,30.25 L50.5,28.5388125 C52.390625,28.5855625 54.4565625,28.9279375 56,31.28125 L56,30.59375 C56,27.4085625 53.59375,24.7891875 50.5,24.4468125 Z" id="arrow-back"></path>
                    </g>
                </g>
            </g>
        </g>
    </g>
</svg>