<?xml version="1.0" encoding="UTF-8"?>
<svg width="23px" height="17px" viewBox="0 0 23 17" version="1.1" xmlns="http://www.w3.org/2000/svg" xmlns:xlink="http://www.w3.org/1999/xlink">
    <!-- Generator: Sketch 54.1 (76490) - https://sketchapp.com -->
    <title>arrow-loop-outline</title>
    <desc>Created with Sketch.</desc>
    <g id="mood-board-/-fact-finding" stroke="none" stroke-width="1" fill="none" fill-rule="evenodd">
        <g id="Group-2" transform="translate(-957.000000, -4.000000)" fill="#000000" fill-rule="nonzero">
            <g id="arrow-loop-outline" transform="translate(957.000000, 4.000000)">
                <path d="M17.994,3.187 L18,3 C18,2.199 17.688,1.445 17.121,0.879 C16.555,0.312 15.801,-4.4408921e-16 15,-4.4408921e-16 C14.199,-4.4408921e-16 13.445,0.312 12.879,0.879 L9.996,3.762 C9.465,3.288 8.766,3 8,3 L7,3 C3.141,3 -1.77635684e-15,6.14 -1.77635684e-15,10 C-1.77635684e-15,13.86 3.141,17 7,17 L16,17 C19.859,17 23,13.86 23,10 C23,6.694 20.86,3.916 17.994,3.187 Z M16,15 L7,15 C4.243,15 2,12.757 2,10 C2,7.243 4.243,5 7,5 L8,5 C8.553,5 9,5.448 9,6 C9,6.552 8.553,7 8,7 L7,7 C5.346,7 4,8.346 4,10 C4,11.654 5.346,13 7,13 L16,13 C17.654,13 19,11.654 19,10 C19,8.346 17.879,7 16.5,7 L14.414,7 L15.707,8.293 C16.098,8.684 16.098,9.316 15.707,9.707 C15.512,9.902 15.256,10 15,10 C14.744,10 14.488,9.902 14.293,9.707 L10.586,6 L14.293,2.293 C14.488,2.098 14.744,2 15,2 C15.256,2 15.512,2.098 15.707,2.293 C16.098,2.684 16.098,3.316 15.707,3.707 L14.414,5 L16.5,5 C18.981,5 21,7.243 21,10 C21,12.757 18.757,15 16,15 Z M16.749,8.029 C17.449,8.193 18,9.029 18,10 C18,11.103 17.103,12 16,12 L7,12 C5.897,12 5,11.103 5,10 C5,8.897 5.897,8 7,8 L8,8 C8.856,8 9.588,7.459 9.873,6.701 L13.586,10.414 C13.964,10.792 14.466,11 15,11 C15.534,11 16.036,10.792 16.414,10.414 C16.792,10.036 17,9.534 17,9 C17,8.655 16.913,8.323 16.749,8.029 L16.749,8.029 Z" id="Shape"></path>
            </g>
        </g>
    </g>
</svg>