<?xml version="1.0" encoding="UTF-8"?>
<svg width="18px" height="17px" viewBox="0 0 18 17" version="1.1" xmlns="http://www.w3.org/2000/svg" xmlns:xlink="http://www.w3.org/1999/xlink">
    <!-- Generator: Sketch 54.1 (76490) - https://sketchapp.com -->
    <title>arrow-shuffle-black</title>
    <desc>Created with Sketch.</desc>
    <g id="inversion" stroke="none" stroke-width="1" fill="none" fill-rule="evenodd">
        <g id="arrow-shuffle-black" fill="#000000" fill-rule="nonzero">
            <path d="M1,5 L4.5,5 C5.236,5 5.893,5.391 6.351,6.001 C6.676,5.397 7.08,4.838 7.542,4.339 C6.739,3.516 5.676,3 4.5,3 L1,3 C0.447,3 0,3.448 0,4 C0,4.552 0.447,5 1,5 L1,5 Z M8.685,8.111 C9.236,6.454 10.941,5 12.334,5 L14.172,5 L12.879,6.293 C12.488,6.684 12.488,7.316 12.879,7.707 C13.074,7.902 13.33,8 13.586,8 C13.842,8 14.098,7.902 14.293,7.707 L18,4 L14.293,0.293 C13.902,-0.098 13.27,-0.098 12.879,0.293 C12.488,0.684 12.488,1.316 12.879,1.707 L14.172,3 L12.334,3 C10.06,3 7.623,4.967 6.787,7.479 L6.315,8.89 C5.674,10.816 4.243,12 3.5,12 L1,12 C0.447,12 3.55271368e-15,12.448 3.55271368e-15,13 C3.55271368e-15,13.552 0.447,14 1,14 L3.5,14 C5.337,14 7.363,12.075 8.213,9.521 L8.685,8.111 L8.685,8.111 Z M12.879,9.293 C12.488,9.684 12.488,10.316 12.879,10.707 L14.172,12 L11.834,12 C10.566,12 9.504,11.109 9.143,9.892 C8.887,10.642 8.516,11.391 8.053,12.077 C8.939,13.239 10.296,14 11.834,14 L14.172,14 L12.879,15.293 C12.488,15.684 12.488,16.316 12.879,16.707 C13.074,16.902 13.33,17 13.586,17 C13.842,17 14.098,16.902 14.293,16.707 L18,13 L14.293,9.293 C13.902,8.902 13.27,8.902 12.879,9.293 L12.879,9.293 Z" id="Shape"></path>
        </g>
    </g>
</svg>