<svg height='100px' width='100px'  fill="#000000" xmlns="http://www.w3.org/2000/svg" xmlns:xlink="http://www.w3.org/1999/xlink" version="1.1" x="0px" y="0px" viewBox="0 0 161.492 162.732" enable-background="new 0 0 161.492 162.732" xml:space="preserve"><path d="M119.879,27.757H42.872c-6.118,0-11.077,4.959-11.077,11.077v85.421c0,6.119,4.959,11.077,11.077,11.077h77.007  c6.117,0,11.074-4.958,11.074-11.077V38.834C130.954,32.716,125.997,27.757,119.879,27.757z M63.406,126.046  c0,1.352-1.188,2.446-2.655,2.446H42.287c-1.468,0-2.656-1.095-2.656-2.446v-17.02c0-1.354,1.188-2.449,2.656-2.449h18.464  c1.467,0,2.655,1.095,2.655,2.449V126.046z M93.181,126.046c0,1.352-1.186,2.446-2.654,2.446H72.064  c-1.469,0-2.657-1.095-2.657-2.446v-17.02c0-1.354,1.188-2.449,2.657-2.449h18.462c1.469,0,2.654,1.095,2.654,2.449V126.046z   M122.958,126.046c0,1.352-1.186,2.446-2.654,2.446H101.84c-1.469,0-2.654-1.095-2.654-2.446v-17.02  c0-1.354,1.186-2.449,2.654-2.449h18.463c1.469,0,2.654,1.095,2.654,2.449V126.046z M63.406,97.952c0,1.352-1.188,2.448-2.655,2.448  H42.287c-1.468,0-2.656-1.097-2.656-2.448V80.93c0-1.352,1.188-2.447,2.656-2.447h18.464c1.467,0,2.655,1.096,2.655,2.447V97.952z   M93.181,97.952c0,1.352-1.186,2.448-2.654,2.448H72.064c-1.469,0-2.657-1.097-2.657-2.448V80.93c0-1.352,1.188-2.447,2.657-2.447  h18.462c1.469,0,2.654,1.096,2.654,2.447V97.952z M122.958,97.952c0,1.352-1.186,2.448-2.654,2.448H101.84  c-1.469,0-2.654-1.097-2.654-2.448V80.93c0-1.352,1.186-2.447,2.654-2.447h18.463c1.469,0,2.654,1.096,2.654,2.447V97.952z   M63.406,69.469c0,1.353-1.188,2.447-2.655,2.447H42.287c-1.468,0-2.656-1.094-2.656-2.447V52.448c0-1.352,1.188-2.448,2.656-2.448  h18.464c1.467,0,2.655,1.096,2.655,2.448V69.469z M93.181,69.469c0,1.353-1.186,2.447-2.654,2.447H72.064  c-1.469,0-2.657-1.094-2.657-2.447V52.448c0-1.352,1.188-2.448,2.657-2.448h18.462c1.469,0,2.654,1.096,2.654,2.448V69.469z   M122.958,69.469c0,1.353-1.186,2.447-2.654,2.447H101.84c-1.469,0-2.654-1.094-2.654-2.447V52.448c0-1.352,1.186-2.448,2.654-2.448  h18.463c1.469,0,2.654,1.096,2.654,2.448V69.469z"></path></svg>