<?xml version="1.0" encoding="UTF-8"?>
<svg width="12px" height="12px" viewBox="0 0 12 12" version="1.1" xmlns="http://www.w3.org/2000/svg" xmlns:xlink="http://www.w3.org/1999/xlink">
    <!-- Generator: Sketch 54.1 (76490) - https://sketchapp.com -->
    <title>delete-outline-black</title>
    <desc>Created with Sketch.</desc>
    <g id="inversion" stroke="none" stroke-width="1" fill="none" fill-rule="evenodd">
        <g id="delete-outline-black" fill="#000000" fill-rule="nonzero">
            <path d="M6,0 C2.69133333,0 0,2.692 0,6 C0,9.308 2.69133333,12 6,12 C9.30866667,12 12,9.308 12,6 C12,2.692 9.30866667,0 6,0 Z M6,10.6666667 C3.42733333,10.6666667 1.33333333,8.57333333 1.33333333,6 C1.33333333,3.42666667 3.42733333,1.33333333 6,1.33333333 C8.57266667,1.33333333 10.6666667,3.42666667 10.6666667,6 C10.6666667,8.57333333 8.57266667,10.6666667 6,10.6666667 Z M6.47133333,6 L8.23533333,4.236 C8.36466667,4.10666667 8.36466667,3.89466667 8.23533333,3.76466667 C8.10533333,3.63533333 7.89333333,3.63533333 7.764,3.76466667 L6,5.52866667 L4.236,3.764 C4.106,3.63466667 3.894,3.63466667 3.76466667,3.764 C3.63466667,3.894 3.63466667,4.106 3.76466667,4.23533333 L5.52866667,6 L3.76466667,7.764 C3.63466667,7.894 3.63466667,8.106 3.76466667,8.23533333 C3.82933333,8.30066667 3.91466667,8.33333333 4,8.33333333 C4.08533333,8.33333333 4.17066667,8.30066667 4.236,8.236 L6,6.47133333 L7.764,8.23533333 C7.82933333,8.30066667 7.91466667,8.33333333 8,8.33333333 C8.08533333,8.33333333 8.17066667,8.30066667 8.236,8.236 C8.36533333,8.10666667 8.36533333,7.89466667 8.236,7.76466667 L6.47133333,6 L6.47133333,6 Z" id="Shape"></path>
        </g>
    </g>
</svg>