<?xml version="1.0" encoding="UTF-8"?>
<svg width="12px" height="12px" viewBox="0 0 12 12" version="1.1" xmlns="http://www.w3.org/2000/svg" xmlns:xlink="http://www.w3.org/1999/xlink">
    <!-- Generator: Sketch 54.1 (76490) - https://sketchapp.com -->
    <title>document</title>
    <desc>Created with Sketch.</desc>
    <g id="Final-design" stroke="none" stroke-width="1" fill="none" fill-rule="evenodd">
        <g id="Group-5" transform="translate(-450.000000, -158.000000)" fill="#000000" fill-rule="nonzero">
            <g id="Group-21" transform="translate(432.000000, 56.000000)">
                <g id="Group-19" transform="translate(1.000000, 96.000000)">
                    <g id="document" transform="translate(17.605479, 6.000000)">
                        <path d="M11.1831688,2.862 L8.33522363,0.195333333 C8.20208219,0.07 8.02123767,0 7.83184932,0 L2.1359589,0 C0.958333562,0 0,0.897333333 0,2 L0,10 C0,11.1026667 0.958333562,12 2.1359589,12 L9.25582192,12 C10.4334473,12 11.3917808,11.1026667 11.3917808,10 L11.3917808,3.33333333 C11.3917808,3.156 11.3170223,2.98666667 11.1831688,2.862 Z M9.67304589,3.33333333 L8.89982877,3.33333333 C8.3110161,3.33333333 7.83184932,2.88466667 7.83184932,2.33333333 L7.83184932,1.60933333 L9.67304589,3.33333333 Z M9.25582192,10.6666667 L2.1359589,10.6666667 C1.74294247,10.6666667 1.4239726,10.368 1.4239726,10 L1.4239726,2 C1.4239726,1.632 1.74294247,1.33333333 2.1359589,1.33333333 L7.11986301,1.33333333 L7.11986301,2.33333333 C7.11986301,3.25266667 7.91799966,4 8.89982877,4 L9.96780822,4 L9.96780822,10 C9.96780822,10.368 9.64883836,10.6666667 9.25582192,10.6666667 Z" id="Shape"></path>
                    </g>
                </g>
            </g>
        </g>
    </g>
</svg>