<?xml version="1.0" encoding="UTF-8"?>
<svg width="12px" height="12px" viewBox="0 0 12 12" version="1.1" xmlns="http://www.w3.org/2000/svg" xmlns:xlink="http://www.w3.org/1999/xlink">
    <!-- Generator: Sketch 54.1 (76490) - https://sketchapp.com -->
    <title>document-black</title>
    <desc>Created with Sketch.</desc>
    <g id="inversion" stroke="none" stroke-width="1" fill="none" fill-rule="evenodd">
        <g id="document-black" fill="#000000" fill-rule="nonzero">
            <path d="M11.7886478,2.862 L8.94070263,0.195333333 C8.80756119,0.07 8.62671667,0 8.43732832,0 L2.7414379,0 C1.56381256,0 0.605479,0.897333333 0.605479,2 L0.605479,10 C0.605479,11.1026667 1.56381256,12 2.7414379,12 L9.86130092,12 C11.0389263,12 11.9972598,11.1026667 11.9972598,10 L11.9972598,3.33333333 C11.9972598,3.156 11.9225013,2.98666667 11.7886478,2.862 Z M10.2785249,3.33333333 L9.50530777,3.33333333 C8.9164951,3.33333333 8.43732832,2.88466667 8.43732832,2.33333333 L8.43732832,1.60933333 L10.2785249,3.33333333 Z M9.86130092,10.6666667 L2.7414379,10.6666667 C2.34842147,10.6666667 2.0294516,10.368 2.0294516,10 L2.0294516,2 C2.0294516,1.632 2.34842147,1.33333333 2.7414379,1.33333333 L7.72534201,1.33333333 L7.72534201,2.33333333 C7.72534201,3.25266667 8.52347866,4 9.50530777,4 L10.5732872,4 L10.5732872,10 C10.5732872,10.368 10.2543174,10.6666667 9.86130092,10.6666667 Z" id="Shape"></path>
        </g>
    </g>
</svg>