<?xml version="1.0" encoding="UTF-8"?>
<svg width="10px" height="12px" viewBox="0 0 10 12" version="1.1" xmlns="http://www.w3.org/2000/svg" xmlns:xlink="http://www.w3.org/1999/xlink">
    <!-- Generator: Sketch 54.1 (76490) - https://sketchapp.com -->
    <title>document-text-black</title>
    <desc>Created with Sketch.</desc>
    <g id="inversion" stroke="none" stroke-width="1" fill="none" fill-rule="evenodd">
        <g id="document-text-black" fill="#000000" fill-rule="nonzero">
            <path d="M8.125,12 L1.875,12 C0.84125,12 0,11.1026667 0,10 L0,2 C0,0.897333333 0.84125,0 1.875,0 L8.125,0 C9.15875,0 10,0.897333333 10,2 L10,10 C10,11.1026667 9.15875,12 8.125,12 Z M1.66666667,2 C1.29933333,2 1,2.28864286 1,2.64285714 L1,10.3571429 C1,10.7113571 1.29933333,11 1.66666667,11 L8.33333333,11 C8.70066667,11 9,10.7113571 9,10.3571429 L9,2.64285714 C9,2.28864286 8.70066667,2 8.33333333,2 L1.66666667,2 Z M7.66666667,6 L2.33333333,6 C2.14933333,6 2,5.776 2,5.5 C2,5.224 2.14933333,5 2.33333333,5 L7.66666667,5 C7.85066667,5 8,5.224 8,5.5 C8,5.776 7.85066667,6 7.66666667,6 Z M7.66666667,4 L2.33333333,4 C2.14933333,4 2,3.776 2,3.5 C2,3.224 2.14933333,3 2.33333333,3 L7.66666667,3 C7.85066667,3 8,3.224 8,3.5 C8,3.776 7.85066667,4 7.66666667,4 Z M7.66666667,8 L2.33333333,8 C2.14933333,8 2,7.776 2,7.5 C2,7.224 2.14933333,7 2.33333333,7 L7.66666667,7 C7.85066667,7 8,7.224 8,7.5 C8,7.776 7.85066667,8 7.66666667,8 Z M7.66666667,10 L2.33333333,10 C2.14933333,10 2,9.776 2,9.5 C2,9.224 2.14933333,9 2.33333333,9 L7.66666667,9 C7.85066667,9 8,9.224 8,9.5 C8,9.776 7.85066667,10 7.66666667,10 Z" id="Shape"></path>
        </g>
    </g>
</svg>