<?xml version="1.0" encoding="UTF-8"?>
<svg width="18px" height="17px" viewBox="0 0 18 17" version="1.1" xmlns="http://www.w3.org/2000/svg" xmlns:xlink="http://www.w3.org/1999/xlink">
    <!-- Generator: Sketch 54.1 (76490) - https://sketchapp.com -->
    <title>export</title>
    <desc>Created with Sketch.</desc>
    <g id="mood-board-/-fact-finding" stroke="none" stroke-width="1" fill="none" fill-rule="evenodd">
        <g id="Group-2" transform="translate(-203.000000, -213.000000)" fill="#000000" fill-rule="nonzero">
            <g id="export" transform="translate(203.000000, 213.000000)">
                <path d="M4,12.5 L4,13 C5.691,10.422 7.6,9.047 10,9 L10,12 C10,12.551 10.511,13 11.143,13 C11.507,13 11.818,12.842 12.026,12.609 C13.959,10.58 18,6.5 18,6.5 C18,6.5 13.959,2.418 12.025,0.363 C11.817,0.158 11.507,1.77635684e-15 11.143,1.77635684e-15 C10.511,1.77635684e-15 10,0.447 10,1 L10,4 C5.34,4 4,8.871 4,12.5 Z M1,17 L15,17 C15.553,17 16,16.552 16,16 L16,9.954 C15.336,10.63 14.636,11.347 14,12.001 L14,15 L2,15 L2,3 L9,3 L9,1 L1,1 C0.447,1 0,1.448 0,2 L0,16 C0,16.552 0.447,17 1,17 Z" id="Shape"></path>
            </g>
        </g>
    </g>
</svg>