<?xml version="1.0" encoding="UTF-8"?>
<svg width="15px" height="13px" viewBox="0 0 15 13" version="1.1" xmlns="http://www.w3.org/2000/svg" xmlns:xlink="http://www.w3.org/1999/xlink">
    <!-- Generator: Sketch 54.1 (76490) - https://sketchapp.com -->
    <title>folder-add-black</title>
    <desc>Created with Sketch.</desc>
    <g id="inversion" stroke="none" stroke-width="1" fill="none" fill-rule="evenodd">
        <g id="folder-add-black" fill="#000000" fill-rule="nonzero">
            <path d="M12.5,1.625 L7.5,1.625 C7.5,0.728 6.753333,0 5.833333,0 L2.5,0 C1.121667,0 0,1.093625 0,2.4375 L0,10.5625 C0,11.906375 1.121667,13 2.5,13 L12.5,13 C13.878333,13 15,11.906375 15,10.5625 L15,4.0625 C15,2.718625 13.878333,1.625 12.5,1.625 Z M12.5,11.375 L2.5,11.375 C2.04,11.375 1.666667,11.011 1.666667,10.5625 L1.666667,4.875 L5,4.875 C5.229167,4.875 5.416667,4.6921875 5.416667,4.46875 C5.416667,4.2453125 5.229167,4.0625 5,4.0625 L1.666667,4.0625 L1.666667,2.4375 C1.666667,1.989 2.04,1.625 2.5,1.625 L5.833333,1.625 C5.833333,2.522 6.58,3.25 7.5,3.25 L12.5,3.25 C12.96,3.25 13.333333,3.614 13.333333,4.0625 L10,4.0625 C9.770833,4.0625 9.583333,4.2453125 9.583333,4.46875 C9.583333,4.6921875 9.770833,4.875 10,4.875 L13.333333,4.875 L13.333333,10.5625 C13.333333,11.011 12.96,11.375 12.5,11.375 Z M10,6.5 L8.333333,6.5 L8.333333,4.875 C8.333333,4.4256875 7.960833,4.0625 7.5,4.0625 C7.039167,4.0625 6.666667,4.4256875 6.666667,4.875 L6.666667,6.5 L5,6.5 C4.539167,6.5 4.166667,6.8631875 4.166667,7.3125 C4.166667,7.7618125 4.539167,8.125 5,8.125 L6.666667,8.125 L6.666667,9.75 C6.666667,10.1993125 7.039167,10.5625 7.5,10.5625 C7.960833,10.5625 8.333333,10.1993125 8.333333,9.75 L8.333333,8.125 L10,8.125 C10.460833,8.125 10.833333,7.7618125 10.833333,7.3125 C10.833333,6.8631875 10.460833,6.5 10,6.5 Z" id="folder-add"></path>
        </g>
    </g>
</svg>