<?xml version="1.0" encoding="UTF-8"?>
<svg width="14px" height="12px" viewBox="0 0 14 12" version="1.1" xmlns="http://www.w3.org/2000/svg" xmlns:xlink="http://www.w3.org/1999/xlink">
    <!-- Generator: Sketch 54.1 (76490) - https://sketchapp.com -->
    <title>folder</title>
    <desc>Created with Sketch.</desc>
    <g id="Final-design" stroke="none" stroke-width="1" fill="none" fill-rule="evenodd">
        <g id="Group-5" transform="translate(-260.000000, -227.000000)" fill="#000000" fill-rule="nonzero">
            <g id="Group-7" transform="translate(244.000000, 164.000000)">
                <path d="M27.6666667,64.5 L23,64.5 C23,63.672 22.3031111,63 21.4444444,63 L18.3333333,63 C17.0468889,63 16,64.0095 16,65.25 L16,72.75 C16,73.9905 17.0468889,75 18.3333333,75 L27.6666667,75 C28.9531111,75 30,73.9905 30,72.75 L30,66.75 C30,65.5095 28.9531111,64.5 27.6666667,64.5 Z M18.3333333,64.5 L21.4444444,64.5 C21.4444444,65.328 22.1413333,66 23,66 L27.6666667,66 C28.096,66 28.4444444,66.336 28.4444444,66.75 L17.5555556,66.75 L17.5555556,65.25 C17.5555556,64.836 17.904,64.5 18.3333333,64.5 Z M27.6666667,73.5 L18.3333333,73.5 C17.904,73.5 17.5555556,73.164 17.5555556,72.75 L17.5555556,67.5 L28.4444444,67.5 L28.4444444,72.75 C28.4444444,73.164 28.096,73.5 27.6666667,73.5 Z" id="folder"></path>
            </g>
        </g>
    </g>
</svg>