<?xml version="1.0" encoding="UTF-8"?>
<svg width="16px" height="12px" viewBox="0 0 16 12" version="1.1" xmlns="http://www.w3.org/2000/svg" xmlns:xlink="http://www.w3.org/1999/xlink">
    <!-- Generator: Sketch 54.1 (76490) - https://sketchapp.com -->
    <title>folder-open</title>
    <desc>Created with Sketch.</desc>
    <g id="Final-design" stroke="none" stroke-width="1" fill="none" fill-rule="evenodd">
        <g id="Group-5" transform="translate(-257.000000, -185.000000)" fill="#000000" fill-rule="nonzero">
            <g id="Group-7" transform="translate(244.000000, 164.000000)">
                <path d="M28.4525679,24 L26.6256633,24 C26.3211792,23.1 25.483848,22.5 24.4942747,22.5 L19.9270132,22.5 C19.9270132,21.675 19.241924,21 18.4045927,21 L15.2836307,21 C13.9895733,21 13,21.975 13,23.25 L13,30.75 C13,32.025 13.9895733,33 15.2836307,33 L24.4181536,33 C25.712211,33 27.0062685,32.025 27.3107525,30.75 L28.9854151,24.75 C29.0615361,24.3 28.833173,24 28.4525679,24 Z M14.5224205,24.75 L14.5224205,23.25 C14.5224205,22.8 14.8269046,22.5 15.2836307,22.5 L18.3284717,22.5 C18.3284717,23.325 19.0135609,24 19.8508922,24 L24.4181536,24 C24.8748798,24 25.1793639,24.3 25.1793639,24.75 L16.7299302,24.75 C16.273204,24.75 15.8925989,25.05 15.7403569,25.5 L14.5224205,30.225 L14.5224205,24.75 Z M25.8644531,30.375 C25.712211,30.975 25.0271218,31.5 24.4181536,31.5 L15.2836307,31.5 C15.2836307,31.5 14.9791466,31.35 15.1313887,30.9 L16.5776881,25.65 C16.5776881,25.575 16.7299302,25.5 16.8060512,25.5 L27.2346315,25.5 L25.8644531,30.375 Z" id="folder-open"></path>
            </g>
        </g>
    </g>
</svg>