<?xml version="1.0" encoding="UTF-8"?>
<svg width="15px" height="13px" viewBox="0 0 15 13" version="1.1" xmlns="http://www.w3.org/2000/svg" xmlns:xlink="http://www.w3.org/1999/xlink">
    <!-- Generator: Sketch 54.1 (76490) - https://sketchapp.com -->
    <title>folder-add</title>
    <desc>Created with Sketch.</desc>
    <g id="Final-design" stroke="none" stroke-width="1" fill="none" fill-rule="evenodd">
        <g id="Group-5" transform="translate(-360.000000, -32.000000)" fill="#FFFFFF" fill-rule="nonzero">
            <g id="Group-29" transform="translate(119.000000, 11.000000)">
                <g id="Group-28">
                    <g id="Group-9">
                        <path d="M253.5,22.625 L248.5,22.625 C248.5,21.728 247.753333,21 246.833333,21 L243.5,21 C242.121667,21 241,22.093625 241,23.4375 L241,31.5625 C241,32.906375 242.121667,34 243.5,34 L253.5,34 C254.878333,34 256,32.906375 256,31.5625 L256,25.0625 C256,23.718625 254.878333,22.625 253.5,22.625 Z M253.5,32.375 L243.5,32.375 C243.04,32.375 242.666667,32.011 242.666667,31.5625 L242.666667,25.875 L246,25.875 C246.229167,25.875 246.416667,25.6921875 246.416667,25.46875 C246.416667,25.2453125 246.229167,25.0625 246,25.0625 L242.666667,25.0625 L242.666667,23.4375 C242.666667,22.989 243.04,22.625 243.5,22.625 L246.833333,22.625 C246.833333,23.522 247.58,24.25 248.5,24.25 L253.5,24.25 C253.96,24.25 254.333333,24.614 254.333333,25.0625 L251,25.0625 C250.770833,25.0625 250.583333,25.2453125 250.583333,25.46875 C250.583333,25.6921875 250.770833,25.875 251,25.875 L254.333333,25.875 L254.333333,31.5625 C254.333333,32.011 253.96,32.375 253.5,32.375 Z M251,27.5 L249.333333,27.5 L249.333333,25.875 C249.333333,25.4256875 248.960833,25.0625 248.5,25.0625 C248.039167,25.0625 247.666667,25.4256875 247.666667,25.875 L247.666667,27.5 L246,27.5 C245.539167,27.5 245.166667,27.8631875 245.166667,28.3125 C245.166667,28.7618125 245.539167,29.125 246,29.125 L247.666667,29.125 L247.666667,30.75 C247.666667,31.1993125 248.039167,31.5625 248.5,31.5625 C248.960833,31.5625 249.333333,31.1993125 249.333333,30.75 L249.333333,29.125 L251,29.125 C251.460833,29.125 251.833333,28.7618125 251.833333,28.3125 C251.833333,27.8631875 251.460833,27.5 251,27.5 Z" id="folder-add"></path>
                    </g>
                </g>
            </g>
        </g>
    </g>
</svg>