<?xml version="1.0" encoding="UTF-8"?>
<svg width="16px" height="12px" viewBox="0 0 16 12" version="1.1" xmlns="http://www.w3.org/2000/svg" xmlns:xlink="http://www.w3.org/1999/xlink">
    <!-- Generator: Sketch 54.1 (76490) - https://sketchapp.com -->
    <title>folder-open-black</title>
    <desc>Created with Sketch.</desc>
    <g id="inversion" stroke="none" stroke-width="1" fill="none" fill-rule="evenodd">
        <g id="folder-open-black" fill="#000000" fill-rule="nonzero">
            <path d="M15.4525679,3 L13.6256633,3 C13.3211792,2.1 12.483848,1.5 11.4942747,1.5 L6.9270132,1.5 C6.9270132,0.675 6.241924,0 5.4045927,0 L2.2836307,0 C0.9895733,0 0,0.975 0,2.25 L0,9.75 C0,11.025 0.9895733,12 2.2836307,12 L11.4181536,12 C12.712211,12 14.0062685,11.025 14.3107525,9.75 L15.9854151,3.75 C16.0615361,3.3 15.833173,3 15.4525679,3 Z M1.5224205,3.75 L1.5224205,2.25 C1.5224205,1.8 1.8269046,1.5 2.2836307,1.5 L5.3284717,1.5 C5.3284717,2.325 6.0135609,3 6.8508922,3 L11.4181536,3 C11.8748798,3 12.1793639,3.3 12.1793639,3.75 L3.7299302,3.75 C3.273204,3.75 2.8925989,4.05 2.7403569,4.5 L1.5224205,9.225 L1.5224205,3.75 Z M12.8644531,9.375 C12.712211,9.975 12.0271218,10.5 11.4181536,10.5 L2.2836307,10.5 C2.2836307,10.5 1.9791466,10.35 2.1313887,9.9 L3.5776881,4.65 C3.5776881,4.575 3.7299302,4.5 3.8060512,4.5 L14.2346315,4.5 L12.8644531,9.375 Z" id="folder-open"></path>
        </g>
    </g>
</svg>