<?xml version="1.0" encoding="UTF-8"?>
<svg width="20px" height="16px" viewBox="0 0 20 16" version="1.1" xmlns="http://www.w3.org/2000/svg" xmlns:xlink="http://www.w3.org/1999/xlink">
    <!-- Generator: Sketch 54.1 (76490) - https://sketchapp.com -->
    <title>image</title>
    <desc>Created with Sketch.</desc>
    <g id="mood-board-/-fact-finding" stroke="none" stroke-width="1" fill="none" fill-rule="evenodd">
        <g id="Group-2" transform="translate(-1075.000000, -274.000000)" fill="#000000" fill-rule="nonzero">
            <g id="image" transform="translate(1075.000000, 274.000000)">
                <circle id="Oval" cx="6.5" cy="5.501" r="2.5"></circle>
                <path d="M14,7 C12,7 11,10 9.5,10 C8,10 8.001,9 6,9 C4,9 2.999,13 2.999,13 L17,13 C17,13 16,7 14,7 Z M18,0 L2,0 C0.897,0 0,0.897 0,2 L0,14 C0,15.103 0.897,16 2,16 L18,16 C19.103,16 20,15.103 20,14 L20,2 C20,0.897 19.103,0 18,0 Z M18,14 L2,14 L2,2 L18,2 L18,14 Z" id="Shape"></path>
            </g>
        </g>
    </g>
</svg>