<svg height='100px' width='100px'  fill="#000000" xmlns:x="http://ns.adobe.com/Extensibility/1.0/" xmlns:i="http://ns.adobe.com/AdobeIllustrator/10.0/" xmlns:graph="http://ns.adobe.com/Graphs/1.0/" xmlns="http://www.w3.org/2000/svg" xmlns:xlink="http://www.w3.org/1999/xlink" xmlns:a="http://ns.adobe.com/AdobeSVGViewerExtensions/3.0/" version="1.1" x="0px" y="0px" viewBox="0 0 64 64" style="enable-background:new 0 0 64 64;" xml:space="preserve"><metadata><sfw xmlns="http://ns.adobe.com/SaveForWeb/1.0/"><slices></slices><sliceSourceBounds bottomLeftOrigin="true" height="1432" width="352" x="-160" y="-732"></sliceSourceBounds></sfw></metadata><g><g i:extraneous="self"><path d="M50.8837891,17.1162109l-0.0006104-0.0006104l-9.9987793-9.9987793l-0.0006104-0.0006104    c-0.116394-0.116394-0.2536011-0.2069092-0.4025879-0.269104C40.3330078,6.7851563,40.1707153,6.75,40,6.75H14    c-0.6904297,0-1.25,0.5595703-1.25,1.25v48c0,0.6904297,0.5595703,1.25,1.25,1.25h36c0.6904297,0,1.25-0.5595703,1.25-1.25V18    c0-0.1669312-0.0339966-0.3301392-0.0971069-0.4812012C51.0906982,17.369812,51.0001831,17.232605,50.8837891,17.1162109z     M41.25,11.0175781L46.9824219,16.75H41.25V11.0175781z M24.75,30c0-0.4331055,0.2241211-0.8354492,0.5927734-1.0634766    c0.3681641-0.2275391,0.8291016-0.2485352,1.2163086-0.0546875l12,6C38.9824219,35.09375,39.25,35.5263672,39.25,36    s-0.2675781,0.90625-0.690918,1.1181641l-12,6C26.3828125,43.2060547,26.190918,43.25,26,43.25    c-0.2285156,0-0.456543-0.0625-0.6572266-0.1865234C24.9741211,42.8354492,24.75,42.4331055,24.75,42V30z"></path></g></g></svg>