<?xml version="1.0" encoding="UTF-8"?>
<svg width="19px" height="19px" viewBox="0 0 19 19" version="1.1" xmlns="http://www.w3.org/2000/svg" xmlns:xlink="http://www.w3.org/1999/xlink">
    <!-- Generator: Sketch 54.1 (76490) - https://sketchapp.com -->
    <title>pencil</title>
    <desc>Created with Sketch.</desc>
    <g id="mood-board-/-fact-finding" stroke="none" stroke-width="1" fill="none" fill-rule="evenodd">
        <g id="Group-2" transform="translate(-93.000000, -71.000000)" fill="#000000" fill-rule="nonzero">
            <g id="pencil" transform="translate(93.000000, 71.000000)">
                <path d="M18,4.879 L14.121,1 C13.828,0.707 13.443,0.561 13.06,0.561 C12.676,0.561 12.293,0.707 12,1 L1.061,11.939 C0.768,12.232 0.503,12.666 0.311,13.127 C0.119,13.59 -1.77635684e-15,14.086 -1.77635684e-15,14.5 L-1.77635684e-15,19 L4.5,19 C4.914,19 5.408,18.881 5.871,18.689 C6.334,18.497 6.767,18.232 7.06,17.939 L18,7 C18.293,6.707 18.439,6.322 18.439,5.939 C18.439,5.555 18.293,5.172 18,4.879 Z M2.768,13.061 L11.061,4.768 L12.293,6 L4,14.293 L2.768,13.061 Z M4.5,17 L3,17 L2,16 L2,14.5 C2,14.423 2.033,14.195 2.158,13.895 C2.168,13.875 5.125,16.833 5.125,16.833 C4.803,16.967 4.577,17 4.5,17 L4.5,17 Z M5.939,16.232 L4.707,15 L13,6.707 L14.232,7.939 L5.939,16.232 Z M14.939,7.232 L11.767,4.06 L13.06,2.767 L16.23,5.939 L14.939,7.232 L14.939,7.232 Z" id="Shape"></path>
            </g>
        </g>
    </g>
</svg>