<svg height='100px' width='100px'  fill="#000000" xmlns="http://www.w3.org/2000/svg" viewBox="0 0 32 32" x="0px" y="0px"><title>presentation business work partner</title><g data-name="Layer 2"><path d="M17,5H15V3a1,1,0,0,1,2,0ZM6.59,28.09a1,1,0,0,0,.82,1.82L14,27H9Zm18.82,0L23,27H18.05l6.54,2.91A1,1,0,0,0,25,30a1,1,0,0,0,.41-1.91ZM30,7V25a1,1,0,0,1-1,1H3a1,1,0,0,1-1-1V7A1,1,0,0,1,3,6H29A1,1,0,0,1,30,7ZM25,20a1,1,0,0,0-1-1H8a1,1,0,0,0,0,2H24A1,1,0,0,0,25,20Zm0-4a1,1,0,0,0-1-1H8a1,1,0,0,0,0,2H24A1,1,0,0,0,25,16Zm0-4a1,1,0,0,0-1-1H8a1,1,0,0,0,0,2H24A1,1,0,0,0,25,12Z"></path></g></svg>