<?xml version="1.0" encoding="UTF-8"?>
<svg width="11px" height="16px" viewBox="0 0 11 16" version="1.1" xmlns="http://www.w3.org/2000/svg" xmlns:xlink="http://www.w3.org/1999/xlink">
    <!-- Generator: Sketch 54.1 (76490) - https://sketchapp.com -->
    <title>?</title>
    <desc>Created with Sketch.</desc>
    <g id="Final-design" stroke="none" stroke-width="1" fill="none" fill-rule="evenodd">
        <g id="Group-5" transform="translate(-276.000000, -668.000000)" fill="#000000" fill-rule="nonzero">
            <path d="M280.34,678.14 C280.34,677.446663 280.496665,676.873336 280.81,676.42 C281.123335,675.966664 281.579997,675.466669 282.18,674.92 C282.620002,674.519998 282.943332,674.183335 283.15,673.91 C283.356668,673.636665 283.46,673.326668 283.46,672.98 C283.46,672.486664 283.263335,672.096668 282.87,671.81 C282.476665,671.523332 281.953337,671.38 281.3,671.38 C280.67333,671.38 280.116669,671.509999 279.63,671.77 C279.143331,672.030001 278.733335,672.393331 278.4,672.86 L275.98,671.44 C276.540003,670.586662 277.296662,669.926669 278.25,669.46 C279.203338,668.993331 280.333327,668.76 281.64,668.76 C283.173341,668.76 284.403329,669.086663 285.33,669.74 C286.256671,670.393337 286.72,671.299994 286.72,672.46 C286.72,673.006669 286.630001,673.486665 286.45,673.9 C286.269999,674.313335 286.050001,674.663332 285.79,674.95 C285.529999,675.236668 285.193335,675.566665 284.78,675.94 C284.286664,676.380002 283.926668,676.749998 283.7,677.05 C283.473332,677.350001 283.36,677.713331 283.36,678.14 L280.34,678.14 Z M281.86,683.16 C281.313331,683.16 280.856669,682.983335 280.49,682.63 C280.123332,682.276665 279.94,681.846669 279.94,681.34 C279.94,680.833331 280.119998,680.410002 280.48,680.07 C280.840002,679.729998 281.299997,679.56 281.86,679.56 C282.420003,679.56 282.879998,679.729998 283.24,680.07 C283.600002,680.410002 283.78,680.833331 283.78,681.34 C283.78,681.846669 283.596669,682.276665 283.23,682.63 C282.863332,682.983335 282.406669,683.16 281.86,683.16 Z" id="?"></path>
        </g>
    </g>
</svg>