<?xml version="1.0" encoding="UTF-8"?>
<svg width="13px" height="12px" viewBox="0 0 13 12" version="1.1" xmlns="http://www.w3.org/2000/svg" xmlns:xlink="http://www.w3.org/1999/xlink">
    <!-- Generator: Sketch 54.1 (76490) - https://sketchapp.com -->
    <title>scissors</title>
    <desc>Created with Sketch.</desc>
    <g id="Final-design" stroke="none" stroke-width="1" fill="none" fill-rule="evenodd">
        <g id="Group-5" transform="translate(-491.000000, -33.000000)" fill="#FFFFFF" fill-rule="nonzero">
            <g id="scissors" transform="translate(491.000000, 33.000000)">
                <path d="M12.9178235,0.989609365 C12.1470243,-0.136236629 10.6709439,-0.245714426 9.52861949,0.380084333 L9.38525085,0.459233821 L9.32667011,0.457014677 C8.52349736,0.457014677 7.77736375,0.835008963 7.31950904,1.4696843 L7.29330187,1.50297147 C6.96185822,1.98008754 6.73601406,2.41725902 6.51864869,2.84111562 C6.3220949,3.22280848 6.1332491,3.58822762 5.88351016,3.93811274 C5.63300043,3.58674819 5.44415463,3.22058934 5.24683004,2.83889648 C5.02869387,2.4165193 4.80362051,1.97934783 4.47294766,1.50297147 L4.44751128,1.47042401 C3.99042737,0.835008963 3.24352296,0.457014677 2.44112101,0.457014677 C1.09453484,0.457014677 0,1.50740976 0,2.79895188 C0,4.09123371 1.09530564,5.14236851 2.44112101,5.14236851 C3.03849038,5.14236851 3.60888177,4.93007035 4.04977891,4.55725406 L4.55233997,5.44343245 C3.3028745,6.8311375 2.25612921,8.44223643 2.22529724,8.49179733 C1.27258945,9.75079199 2.76871066,11.7613369 2.8334578,11.8456644 C2.90591292,11.9425671 3.02230359,11.9987854 3.14563146,11.9987854 C3.3028745,11.9899088 3.42080677,11.9174168 3.48401231,11.8057198 L5.88273936,7.57677006 L8.28223722,11.8057198 C8.34544275,11.9166771 8.46337502,11.9899088 8.59595248,11.9980457 C8.73007154,12.0121003 8.85494101,11.9492245 8.93279173,11.8456644 C8.99676806,11.7613369 10.4928893,9.75079199 9.55636827,8.51398877 L9.30740013,8.12859734 C8.47802021,6.84445237 8.3924615,6.71130369 7.21468035,5.44047359 L7.71647062,4.55651435 C8.15736775,4.92933063 8.72852994,5.14162879 9.32589931,5.14162879 C10.6717147,5.14162879 11.7670203,4.090494 11.7670203,2.79821216 C11.7670203,2.32923295 11.6197977,1.87652746 11.3453932,1.49039632 C11.7092104,1.29067331 12.11388,1.39941139 12.4676768,1.56066923 C12.8268692,1.70195476 13.1590836,1.28179673 12.9178235,0.989609365 L12.9178235,0.989609365 Z M2.41568464,3.5675156 C1.99020349,3.5675156 1.64488546,3.23686307 1.64488546,2.82780076 C1.64488546,2.41873845 1.99020349,2.08808591 2.41568464,2.08808591 C2.84116579,2.08808591 3.18648382,2.41873845 3.18648382,2.82780076 C3.18648382,3.23686307 2.84116579,3.5675156 2.41568464,3.5675156 Z M5.88428096,6.0788475 C5.67076959,6.0788475 5.49888137,5.91241166 5.49888137,5.70899008 C5.49888137,5.50408907 5.67076959,5.33913266 5.88428096,5.33913266 C6.09779233,5.33913266 6.26968055,5.50408907 6.26968055,5.70899008 C6.26968055,5.91241166 6.09779233,6.0788475 5.88428096,6.0788475 Z M9.35287728,3.5675156 C8.92739613,3.5675156 8.5820781,3.23686307 8.5820781,2.82780076 C8.5820781,2.41873845 8.92739613,2.08808591 9.35287728,2.08808591 C9.77835843,2.08808591 10.1236765,2.41873845 10.1236765,2.82780076 C10.1236765,3.23686307 9.77835843,3.5675156 9.35287728,3.5675156 Z" id="Shape"></path>
            </g>
        </g>
    </g>
</svg>