<?xml version="1.0" encoding="UTF-8"?>
<svg width="13px" height="13px" viewBox="0 0 13 13" version="1.1" xmlns="http://www.w3.org/2000/svg" xmlns:xlink="http://www.w3.org/1999/xlink">
    <!-- Generator: Sketch 54.1 (76490) - https://sketchapp.com -->
    <title>tabs-outline</title>
    <desc>Created with Sketch.</desc>
    <g id="Final-design" stroke="none" stroke-width="1" fill="none" fill-rule="evenodd">
        <g id="Group-5" transform="translate(-438.000000, -32.000000)" fill="#FFFFFF" fill-rule="nonzero">
            <g id="Group-29" transform="translate(119.000000, 11.000000)">
                <g id="Group-28">
                    <g id="Group-9">
                        <path d="M330.470588,21 L322.823529,21 C321.979294,21 321.294118,21.6851765 321.294118,22.5294118 L321.294118,24.0588235 L320.529412,24.0588235 C319.685176,24.0588235 319,24.744 319,25.5882353 L319,32.4705882 C319,33.3148235 319.685176,34 320.529412,34 L327.411765,34 C328.256,34 328.941176,33.3148235 328.941176,32.4705882 L328.941176,31.7058824 L330.470588,31.7058824 C331.314824,31.7058824 332,31.0207059 332,30.1764706 L332,22.5294118 C332,21.6851765 331.314824,21 330.470588,21 Z M320.529412,32.4705882 L320.529412,25.5882353 L327.029412,25.5882353 C327.239706,25.5882353 327.411765,25.7602941 327.411765,25.9705882 L327.411765,32.4705882 L320.529412,32.4705882 Z M330.470588,30.1764706 L328.176471,30.1764706 L328.176471,25.9705882 C328.176471,25.3381765 327.661824,24.8235294 327.029412,24.8235294 L322.823529,24.8235294 L322.823529,22.5294118 L330.470588,22.5294118 L330.470588,30.1764706 Z" id="tabs-outline"></path>
                    </g>
                </g>
            </g>
        </g>
    </g>
</svg>