<?xml version="1.0" encoding="UTF-8"?>
<svg width="13px" height="13px" viewBox="0 0 13 13" version="1.1" xmlns="http://www.w3.org/2000/svg" xmlns:xlink="http://www.w3.org/1999/xlink">
    <!-- Generator: Sketch 54.1 (76490) - https://sketchapp.com -->
    <title>tabs-outline-black</title>
    <desc>Created with Sketch.</desc>
    <g id="inversion" stroke="none" stroke-width="1" fill="none" fill-rule="evenodd">
        <g id="tabs-outline-black" fill="#000000" fill-rule="nonzero">
            <path d="M11.470588,0 L3.823529,0 C2.979294,0 2.294118,0.6851765 2.294118,1.5294118 L2.294118,3.0588235 L1.529412,3.0588235 C0.685176,3.0588235 0,3.744 0,4.5882353 L0,11.4705882 C0,12.3148235 0.685176,13 1.529412,13 L8.411765,13 C9.256,13 9.941176,12.3148235 9.941176,11.4705882 L9.941176,10.7058824 L11.470588,10.7058824 C12.314824,10.7058824 13,10.0207059 13,9.1764706 L13,1.5294118 C13,0.6851765 12.314824,0 11.470588,0 Z M1.529412,11.4705882 L1.529412,4.5882353 L8.029412,4.5882353 C8.239706,4.5882353 8.411765,4.7602941 8.411765,4.9705882 L8.411765,11.4705882 L1.529412,11.4705882 Z M11.470588,9.1764706 L9.176471,9.1764706 L9.176471,4.9705882 C9.176471,4.3381765 8.661824,3.8235294 8.029412,3.8235294 L3.823529,3.8235294 L3.823529,1.5294118 L11.470588,1.5294118 L11.470588,9.1764706 Z" id="tabs-outline"></path>
        </g>
    </g>
</svg>