<?xml version="1.0" encoding="UTF-8"?>
<svg width="20px" height="23px" viewBox="0 0 20 23" version="1.1" xmlns="http://www.w3.org/2000/svg" xmlns:xlink="http://www.w3.org/1999/xlink">
    <!-- Generator: Sketch 54.1 (76490) - https://sketchapp.com -->
    <title>tags</title>
    <desc>Created with Sketch.</desc>
    <g id="mood-board-/-fact-finding" stroke="none" stroke-width="1" fill="none" fill-rule="evenodd">
        <g id="Group-2" transform="translate(-464.000000, -272.000000)" fill="#000000" fill-rule="nonzero">
            <g id="tags" transform="translate(464.000000, 272.000000)">
                <path d="M19.422,8.594 L12.957,2.059 C11.628,0.729 9.87,-8.8817842e-16 8,-8.8817842e-16 C6.13,-8.8817842e-16 4.372,0.729 3.05,2.051 C1.634,3.465 0.923,5.407 1.023,7.365 C0.361,8.45 -2.22044605e-16,9.695 -2.22044605e-16,10.999 C-2.22044605e-16,12.869 0.729,14.627 2.051,15.949 L5.104,18.933 L8.586,22.413 C8.977,22.805 9.488,23 10,23 C10.512,23 11.023,22.805 11.414,22.414 L18.414,15.414 C19.192,14.636 19.196,13.376 18.422,12.594 L18.329,12.5 L19.414,11.414 C20.192,10.636 20.196,9.376 19.422,8.594 Z M10,21 L6.502,17.503 L3.465,14.535 C1.512,12.582 1.512,9.416 3.465,7.465 C4.441,6.488 5.721,6 7,6 C8.279,6 9.559,6.488 10.535,7.465 L17,14 L10,21 Z M11.957,6.059 C10.628,4.729 8.87,4 7,4 C5.724,4 4.503,4.347 3.435,4.982 C3.676,4.432 4.014,3.915 4.465,3.464 C5.441,2.488 6.721,2 8,2 C9.279,2 10.559,2.488 11.535,3.465 L18,10 L16.922,11.078 L11.957,6.059 Z M7,9.499 C7.83,9.499 8.5,10.171 8.5,11 C8.5,11.83 7.83,12.499 7,12.499 C6.17,12.499 5.5,11.83 5.5,11 C5.5,10.171 6.17,9.499 7,9.499 L7,9.499 Z M7,8.499 C5.622,8.499 4.5,9.621 4.5,11 C4.5,12.378 5.622,13.499 7,13.499 C8.378,13.499 9.5,12.378 9.5,11 C9.5,9.621 8.378,8.499 7,8.499 Z" id="Shape"></path>
            </g>
        </g>
    </g>
</svg>