<?xml version="1.0" encoding="UTF-8"?>
<svg width="19px" height="20px" viewBox="0 0 19 20" version="1.1" xmlns="http://www.w3.org/2000/svg" xmlns:xlink="http://www.w3.org/1999/xlink">
    <!-- Generator: Sketch 54.1 (76490) - https://sketchapp.com -->
    <title>th-list-black</title>
    <desc>Created with Sketch.</desc>
    <g id="mood-board-/-fact-finding" stroke="none" stroke-width="1" fill="none" fill-rule="evenodd">
        <g id="Group-2" transform="translate(-367.000000, -273.000000)" fill="#000000" fill-rule="nonzero">
            <g id="th-list-black" transform="translate(367.000000, 273.000000)">
                <path d="M17,15 L10,15 C8.897,15 8,15.897 8,17 C8,18.103 8.897,19 10,19 L17,19 C18.103,19 19,18.103 19,17 C19,15.897 18.103,15 17,15 Z M17,8 L10,8 C8.897,8 8,8.897 8,10 C8,11.103 8.897,12 10,12 L17,12 C18.103,12 19,11.103 19,10 C19,8.897 18.103,8 17,8 Z M17,1 L10,1 C8.897,1 8,1.897 8,3 C8,4.103 8.897,5 10,5 L17,5 C18.103,5 19,4.103 19,3 C19,1.897 18.103,1 17,1 Z" id="Shape"></path>
                <circle id="Oval" cx="3" cy="17" r="2.5"></circle>
                <circle id="Oval" cx="3" cy="10" r="2.5"></circle>
                <circle id="Oval" cx="3" cy="3" r="2.5"></circle>
            </g>
        </g>
    </g>
</svg>