<?xml version="1.0" encoding="UTF-8"?>
<svg width="8px" height="8px" viewBox="0 0 8 8" version="1.1" xmlns="http://www.w3.org/2000/svg" xmlns:xlink="http://www.w3.org/1999/xlink">
    <!-- Generator: Sketch 54.1 (76490) - https://sketchapp.com -->
    <title>times</title>
    <desc>Created with Sketch.</desc>
    <g id="Final-design" stroke="none" stroke-width="1" fill="none" fill-rule="evenodd">
        <g id="Group-5" transform="translate(-146.000000, -105.000000)" fill="#FFFFFF" fill-rule="nonzero">
            <g id="Group-8" transform="translate(18.000000, 104.000000)">
                <path d="M133.724072,1.39050814 L132,3.11454405 L130.275928,1.39050814 C129.755906,0.869830621 128.910538,0.869830621 128.390516,1.39050814 C127.869828,1.91118565 127.869828,2.75520323 128.390516,3.27588075 L130.113921,4.99991666 L128.390516,6.72395258 C127.869828,7.2446301 127.869828,8.08864768 128.390516,8.60932519 C128.650527,8.86999729 128.991875,9 129.333222,9 C129.67457,9 130.015917,8.86999729 130.275928,8.60932519 L132,6.88528928 L133.724072,8.60932519 C133.984083,8.86999729 134.32543,9 134.666778,9 C135.008125,9 135.349473,8.86999729 135.609484,8.60932519 C136.130172,8.08864768 136.130172,7.2446301 135.609484,6.72395258 L133.886079,4.99991666 L135.609484,3.27588075 C136.130172,2.75520323 136.130172,1.91118565 135.609484,1.39050814 C135.089462,0.869830621 134.244094,0.869830621 133.724072,1.39050814 Z" id="times"></path>
            </g>
        </g>
    </g>
</svg>