<?xml version="1.0" encoding="UTF-8"?>
<svg width="18px" height="21px" viewBox="0 0 18 21" version="1.1" xmlns="http://www.w3.org/2000/svg" xmlns:xlink="http://www.w3.org/1999/xlink">
    <!-- Generator: Sketch 54.1 (76490) - https://sketchapp.com -->
    <title>upload</title>
    <desc>Created with Sketch.</desc>
    <g id="Final-design" stroke="none" stroke-width="1" fill="none" fill-rule="evenodd">
        <g id="Group-5" transform="translate(-131.000000, -666.000000)" fill="#000000" fill-rule="nonzero">
            <g id="Group-49" transform="translate(0.000000, 56.000000)">
                <g id="Group-48" transform="translate(0.000000, 607.000000)">
                    <g id="Group" transform="translate(25.000000, 3.000000)">
                        <path d="M123.271718,14.184 L121.359757,8.184 C121.229744,7.775 120.865516,7.5 120.453488,7.5 L116.629568,7.5 L116.629568,9.5 L119.764227,9.5 L121.357846,14.5 L108.07737,14.5 L109.670989,9.5 L112.805648,9.5 L112.805648,7.5 L108.981728,7.5 C108.5697,7.5 108.205472,7.775 108.075458,8.184 L106.163498,14.184 C106.130039,14.289 106.126215,14.395 106.126215,14.5 C106.113787,14.5 106.113787,19.5 106.113787,19.5 C106.113787,20.053 106.54111,20.5 107.069767,20.5 L122.365449,20.5 C122.894105,20.5 123.321429,20.053 123.321429,19.5 C123.321429,19.5 123.321429,14.5 123.309001,14.5 C123.309001,14.395 123.305177,14.289 123.271718,14.184 Z M118.541528,6.404 C118.789127,6.404 119.036726,6.309 119.217406,6.121 C119.590238,5.731 119.590238,5.097 119.217406,4.707 L114.717608,0 L110.21781,4.707 C109.844978,5.097 109.844978,5.731 110.21781,6.121 C110.39849,6.31 110.646089,6.404 110.893688,6.404 C111.141287,6.404 111.388885,6.31 111.569566,6.121 L113.761628,3.828 L113.761628,10.5 C113.761628,11.052 114.189907,11.5 114.717608,11.5 C115.245309,11.5 115.673588,11.052 115.673588,10.5 L115.673588,3.828 L117.86565,6.121 C118.046331,6.31 118.293929,6.404 118.541528,6.404 Z" id="upload"></path>
                    </g>
                </g>
            </g>
        </g>
    </g>
</svg>