<?xml version="1.0" encoding="UTF-8"?>
<svg width="18px" height="21px" viewBox="0 0 18 21" version="1.1" xmlns="http://www.w3.org/2000/svg" xmlns:xlink="http://www.w3.org/1999/xlink">
    <!-- Generator: Sketch 54.1 (76490) - https://sketchapp.com -->
    <title>upload-black</title>
    <desc>Created with Sketch.</desc>
    <g id="inversion" stroke="none" stroke-width="1" fill="none" fill-rule="evenodd">
        <g id="upload-black" fill="#000000" fill-rule="nonzero">
            <path d="M17.271718,14.184 L15.359757,8.184 C15.229744,7.775 14.865516,7.5 14.453488,7.5 L10.629568,7.5 L10.629568,9.5 L13.764227,9.5 L15.357846,14.5 L2.07737,14.5 L3.670989,9.5 L6.805648,9.5 L6.805648,7.5 L2.981728,7.5 C2.5697,7.5 2.205472,7.775 2.075458,8.184 L0.163498,14.184 C0.130039,14.289 0.126215,14.395 0.126215,14.5 C0.113787,14.5 0.113787,19.5 0.113787,19.5 C0.113787,20.053 0.54111,20.5 1.069767,20.5 L16.365449,20.5 C16.894105,20.5 17.321429,20.053 17.321429,19.5 C17.321429,19.5 17.321429,14.5 17.309001,14.5 C17.309001,14.395 17.305177,14.289 17.271718,14.184 Z M12.541528,6.404 C12.789127,6.404 13.036726,6.309 13.217406,6.121 C13.590238,5.731 13.590238,5.097 13.217406,4.707 L8.717608,0 L4.21781,4.707 C3.844978,5.097 3.844978,5.731 4.21781,6.121 C4.39849,6.31 4.646089,6.404 4.893688,6.404 C5.141287,6.404 5.388885,6.31 5.569566,6.121 L7.761628,3.828 L7.761628,10.5 C7.761628,11.052 8.189907,11.5 8.717608,11.5 C9.245309,11.5 9.673588,11.052 9.673588,10.5 L9.673588,3.828 L11.86565,6.121 C12.046331,6.31 12.293929,6.404 12.541528,6.404 Z" id="upload"></path>
        </g>
    </g>
</svg>