<?xml version="1.0" encoding="UTF-8"?>
<svg width="20px" height="18px" viewBox="0 0 20 18" version="1.1" xmlns="http://www.w3.org/2000/svg" xmlns:xlink="http://www.w3.org/1999/xlink">
    <!-- Generator: Sketch 54.1 (76490) - https://sketchapp.com -->
    <title>warning</title>
    <desc>Created with Sketch.</desc>
    <g id="mood-board-/-fact-finding" stroke="none" stroke-width="1" fill="none" fill-rule="evenodd">
        <g id="Group-2" transform="translate(-105.000000, -274.000000)" fill="#E27C00" fill-rule="nonzero">
            <g id="warning" transform="translate(105.000000, 274.000000)">
                <path d="M19.171,12.398 L13.259,2.544 C12.483,1.251 11.296,0.511 10,0.511 C8.704,0.511 7.517,1.251 6.741,2.542 L0.829,12.398 C0.043,13.707 -0.043,15.103 0.594,16.228 C1.23,17.354 2.472,18 4,18 L16,18 C17.528,18 18.77,17.354 19.406,16.229 C20.043,15.104 19.957,13.708 19.171,12.398 Z M10,14.549 C9.146,14.549 8.45,13.854 8.45,13 C8.45,12.145 9.145,11.449 10,11.449 C10.855,11.449 11.55,12.145 11.55,13 C11.55,13.854 10.854,14.549 10,14.549 Z M11.633,7.125 C11.622,7.156 10.232,10.593 10.232,10.593 C10.194,10.687 10.102,10.749 10.001,10.749 C9.9,10.749 9.808,10.687 9.77,10.593 L8.379,7.155 C8.289,6.922 8.25,6.712 8.25,6.5 C8.25,5.535 9.035,4.75 10,4.75 C10.965,4.75 11.75,5.535 11.75,6.5 C11.75,6.712 11.711,6.922 11.633,7.125 Z" id="Shape"></path>
            </g>
        </g>
    </g>
</svg>