<?xml version="1.0" encoding="UTF-8"?>
<svg width="51px" height="36px" viewBox="0 0 51 36" version="1.1" xmlns="http://www.w3.org/2000/svg" xmlns:xlink="http://www.w3.org/1999/xlink">
    <!-- Generator: Sketch 54.1 (76490) - https://sketchapp.com -->
    <title>weather-cloudy</title>
    <desc>Created with Sketch.</desc>
    <g id="Final-design" stroke="none" stroke-width="1" fill="none" fill-rule="evenodd">
        <g id="Group-5" transform="translate(-23.000000, -10.000000)" fill="#FFFFFF" fill-rule="nonzero">
            <g id="weather-cloudy" transform="translate(23.000000, 10.000000)">
                <path d="M38.25,36 L10.2,36 C4.5747,36 0,31.3868571 0,25.7142857 C0,20.9288571 3.25635,16.8968571 7.65255,15.7525714 L7.65,15.4285714 C7.65,6.91971429 14.51205,0 22.95,0 C29.54685,0 35.2512,4.212 37.3575,10.3242857 C44.8596,9.69171429 51,15.7577143 51,23.1428571 C51,30.2322857 45.28035,36 38.25,36 Z M9.95775,20.556 C7.38735,20.5714286 5.1,22.878 5.1,25.7142857 C5.1,28.5505714 7.38735,30.8571429 10.2,30.8571429 L38.25,30.8571429 C42.4677,30.8571429 45.9,27.396 45.9,23.1428571 C45.9,18.8897143 42.4677,15.4285714 38.25,15.4285714 C37.63035,15.4285714 36.975,15.534 36.1845,15.7628571 L33.44325,16.5522857 L32.96895,13.716 C32.1402,8.748 27.9276,5.14285714 22.95,5.14285714 C17.3247,5.14285714 12.75,9.756 12.75,15.4285714 C12.75,16.128 12.81885,16.83 12.9591,17.514 L13.5813,20.5971429 L9.95775,20.556 Z" id="Shape"></path>
            </g>
        </g>
    </g>
</svg>