<?xml version="1.0" encoding="UTF-8"?>
<svg width="17px" height="17px" viewBox="0 0 17 17" version="1.1" xmlns="http://www.w3.org/2000/svg" xmlns:xlink="http://www.w3.org/1999/xlink">
    <!-- Generator: Sketch 54.1 (76490) - https://sketchapp.com -->
    <title>zoom-black</title>
    <desc>Created with Sketch.</desc>
    <g id="inversion" stroke="none" stroke-width="1" fill="none" fill-rule="evenodd">
        <g id="zoom-black" fill="#000000" fill-rule="nonzero">
            <path d="M10,0 C6.141,0 3,3.141 3,7 C3,7.763 3.127,8.495 3.354,9.183 L2.605,9.933 L2.094,10.445 L1.086,11.49 C0.524,12.047 0.195,12.835 0.195,13.675 C0.195,15.402 1.599,16.806 3.325,16.806 C4.082,16.806 4.829,16.528 5.429,16.022 L5.493,15.967 L5.554,15.906 L7.066,14.396 L7.816,13.647 C8.504,13.873 9.237,14 10,14 C13.859,14 17,10.859 17,7 C17,3.141 13.859,3.55271368e-15 10,0 Z M10,12 C7.243,12 5,9.757 5,7 C5,4.243 7.243,2 10,2 C12.757,2 15,4.243 15,7 C15,9.757 12.757,12 10,12 Z M10,3 C7.795,3 6,4.794 6,7 C6,9.206 7.795,11 10,11 C12.205,11 14,9.206 14,7 C14,4.794 12.205,3 10,3 Z M10,10 C8.344,10 7,8.656 7,7 C7,5.344 8.344,4 10,4 C11.656,4 13,5.344 13,7 C13,8.656 11.656,10 10,10 Z" id="Shape"></path>
        </g>
    </g>
</svg>